TITLE ""
FILE "Step1_Track06.mp3" MP3
  TRACK 01 AUDIO
    TITLE "Step1_Track06_01"
    INDEX 01 00:00:00
  TRACK 02 AUDIO
    TITLE "Step1_Track06_02"
    INDEX 01 00:00:24
  TRACK 03 AUDIO
    TITLE "Step1_Track06_03"
    INDEX 01 00:01:55
  TRACK 04 AUDIO
    TITLE "Step1_Track06_04"
    INDEX 01 00:02:29
  TRACK 05 AUDIO
    TITLE "Step1_Track06_05"
    INDEX 01 00:03:24
  TRACK 06 AUDIO
    TITLE "Step1_Track06_06"
    INDEX 01 00:03:56
  TRACK 07 AUDIO
    TITLE "Step1_Track06_07"
    INDEX 01 00:05:68
  TRACK 08 AUDIO
    TITLE "Step1_Track06_08"
    INDEX 01 00:05:70
  TRACK 09 AUDIO
    TITLE "Step1_Track06_09"
    INDEX 01 00:06:64
  TRACK 10 AUDIO
    TITLE "Step1_Track06_10"
    INDEX 01 00:06:72
  TRACK 11 AUDIO
    TITLE "Step1_Track06_11"
    INDEX 01 00:08:45
  TRACK 12 AUDIO
    TITLE "Step1_Track06_12"
    INDEX 01 00:08:73
  TRACK 13 AUDIO
    TITLE "Step1_Track06_13"
    INDEX 01 00:09:72
  TRACK 14 AUDIO
    TITLE "Step1_Track06_14"
    INDEX 01 00:09:74
  TRACK 15 AUDIO
    TITLE "Step1_Track06_15"
    INDEX 01 00:12:04
  TRACK 16 AUDIO
    TITLE "Step1_Track06_16"
    INDEX 01 00:12:43
  TRACK 17 AUDIO
    TITLE "Step1_Track06_17"
    INDEX 01 00:13:36
  TRACK 18 AUDIO
    TITLE "Step1_Track06_18"
    INDEX 01 00:13:42
  TRACK 19 AUDIO
    TITLE "Step1_Track06_19"
    INDEX 01 00:15:53
  TRACK 20 AUDIO
    TITLE "Step1_Track06_20"
    INDEX 01 00:15:65
  TRACK 21 AUDIO
    TITLE "Step1_Track06_21"
    INDEX 01 00:16:60
  TRACK 22 AUDIO
    TITLE "Step1_Track06_22"
    INDEX 01 00:17:03
  TRACK 23 AUDIO
    TITLE "Step1_Track06_23"
    INDEX 01 00:19:17
  TRACK 24 AUDIO
    TITLE "Step1_Track06_24"
    INDEX 01 00:19:33
  TRACK 25 AUDIO
    TITLE "Step1_Track06_25"
    INDEX 01 00:20:37
  TRACK 26 AUDIO
    TITLE "Step1_Track06_26"
    INDEX 01 00:20:50
  TRACK 27 AUDIO
    TITLE "Step1_Track06_27"
    INDEX 01 00:22:24
  TRACK 28 AUDIO
    TITLE "Step1_Track06_28"
    INDEX 01 00:22:45
  TRACK 29 AUDIO
    TITLE "Step1_Track06_29"
    INDEX 01 00:23:54
  TRACK 30 AUDIO
    TITLE "Step1_Track06_30"
    INDEX 01 00:23:58
  TRACK 31 AUDIO
    TITLE "Step1_Track06_31"
    INDEX 01 00:25:57
  TRACK 32 AUDIO
    TITLE "Step1_Track06_32"
    INDEX 01 00:25:73
  TRACK 33 AUDIO
    TITLE "Step1_Track06_33"
    INDEX 01 00:26:68
  TRACK 34 AUDIO
    TITLE "Step1_Track06_34"
    INDEX 01 00:27:07
  TRACK 35 AUDIO
    TITLE "Step1_Track06_35"
    INDEX 01 00:28:40
  TRACK 36 AUDIO
    TITLE "Step1_Track06_36"
    INDEX 01 00:28:73
  TRACK 37 AUDIO
    TITLE "Step1_Track06_37"
    INDEX 01 00:30:06
  TRACK 38 AUDIO
    TITLE "Step1_Track06_38"
    INDEX 01 00:30:09
  TRACK 39 AUDIO
    TITLE "Step1_Track06_39"
    INDEX 01 00:31:58
  TRACK 40 AUDIO
    TITLE "Step1_Track06_40"
    INDEX 01 00:32:01
  TRACK 41 AUDIO
    TITLE "Step1_Track06_41"
    INDEX 01 00:32:73
  TRACK 42 AUDIO
    TITLE "Step1_Track06_42"
    INDEX 01 00:33:02
  TRACK 43 AUDIO
    TITLE "Step1_Track06_43"
    INDEX 01 00:34:43
